<svg width="64" height="64" viewBox="0 0 64 64" fill="none" xmlns="http://www.w3.org/2000/svg">
  <!-- Outermost diamond with serrated bottom-left and bottom-right edges -->
  <path d="M 32 4 L 60 32 L 54 38 L 52 36 L 50 38 L 48 36 L 46 38 L 44 36 L 42 38 L 40 36 L 38 38 L 36 36 L 34 38 L 32 36 L 30 38 L 28 36 L 26 38 L 24 36 L 22 38 L 20 36 L 18 38 L 16 36 L 14 38 L 10 38 L 4 32 L 32 4 Z" 
        stroke="white" 
        stroke-width="1.5" 
        fill="none" 
        stroke-linecap="round" 
        stroke-linejoin="round"/>
  
  <!-- Middle diamond outline (smooth) -->
  <path d="M 32 12 L 52 32 L 32 52 L 12 32 Z" 
        stroke="white" 
        stroke-width="1.5" 
        fill="none" 
        stroke-linecap="round" 
        stroke-linejoin="round"/>
  
  <!-- Innermost solid diamond -->
  <path d="M 32 20 L 44 32 L 32 44 L 20 32 Z" 
        fill="white"/>
</svg>
